<svg xmlns="http://www.w3.org/2000/svg" xmlns:xlink="http://www.w3.org/1999/xlink" width="1200" zoomAndPan="magnify" viewBox="0 0 900 899.99999" height="1200" preserveAspectRatio="xMidYMid meet" version="1.0"><defs><g/><clipPath id="ab46ce949e"><rect x="0" width="558" y="0" height="218"/></clipPath></defs><rect x="-90" width="1080" fill="#ffffff" y="-89.999999" height="1079.999988" fill-opacity="1"/><rect x="-90" width="1080" fill="#ffffff" y="-89.999999" height="1079.999988" fill-opacity="1"/><g transform="matrix(1, 0, 0, 1, 192, 273)"><g clip-path="url(#ab46ce949e)"><g fill="#045d61" fill-opacity="1"><g transform="translate(0.266331, 151.103881)"><g><path d="M 32.125 5.734375 C 28.757812 5.734375 25.960938 5.359375 23.734375 4.609375 C 21.515625 3.859375 19.757812 3.019531 18.46875 2.09375 C 17.175781 1.164062 16.269531 0.273438 15.75 -0.578125 C 15.226562 -1.429688 14.96875 -1.988281 14.96875 -2.25 C 14.96875 -3.175781 15.175781 -4.171875 15.59375 -5.234375 C 16.007812 -6.296875 16.523438 -7.28125 17.140625 -8.1875 C 17.765625 -9.09375 18.4375 -9.851562 19.15625 -10.46875 C 19.882812 -11.09375 20.535156 -11.40625 21.109375 -11.40625 C 21.828125 -11.40625 22.421875 -10.941406 22.890625 -10.015625 C 22.992188 -9.910156 23.25 -9.648438 23.65625 -9.234375 C 24.070312 -8.816406 24.65625 -8.390625 25.40625 -7.953125 C 26.15625 -7.515625 27.085938 -7.113281 28.203125 -6.75 C 29.316406 -6.382812 30.625 -6.203125 32.125 -6.203125 C 35.375 -6.203125 38.035156 -7.195312 40.109375 -9.1875 C 42.179688 -11.1875 43.21875 -13.890625 43.21875 -17.296875 C 43.21875 -19.679688 42.660156 -21.800781 41.546875 -23.65625 C 40.429688 -25.519531 38.96875 -27.253906 37.15625 -28.859375 C 35.351562 -30.460938 33.285156 -32.023438 30.953125 -33.546875 C 28.628906 -35.078125 26.25 -36.671875 23.8125 -38.328125 C 21.382812 -39.984375 19.003906 -41.765625 16.671875 -43.671875 C 14.347656 -45.585938 12.28125 -47.785156 10.46875 -50.265625 C 8.664062 -52.753906 7.207031 -55.5625 6.09375 -58.6875 C 4.976562 -61.820312 4.421875 -65.40625 4.421875 -69.4375 C 4.421875 -72.90625 5.015625 -76.394531 6.203125 -79.90625 C 7.390625 -83.425781 9.03125 -86.773438 11.125 -89.953125 C 13.226562 -93.140625 15.703125 -96.113281 18.546875 -98.875 C 21.390625 -101.644531 24.460938 -104.050781 27.765625 -106.09375 C 31.078125 -108.132812 34.53125 -109.738281 38.125 -110.90625 C 41.726562 -112.070312 45.335938 -112.65625 48.953125 -112.65625 C 52.054688 -112.65625 54.847656 -112.160156 57.328125 -111.171875 C 59.816406 -110.191406 61.910156 -108.804688 63.609375 -107.015625 C 65.316406 -105.234375 66.632812 -103.085938 67.5625 -100.578125 C 68.5 -98.078125 68.96875 -95.273438 68.96875 -92.171875 C 68.96875 -89.222656 68.453125 -86.328125 67.421875 -83.484375 C 66.390625 -80.640625 65.019531 -77.945312 63.3125 -75.40625 C 61.601562 -72.875 59.675781 -70.535156 57.53125 -68.390625 C 55.382812 -66.242188 53.1875 -64.378906 50.9375 -62.796875 C 48.6875 -61.222656 46.5 -59.992188 44.375 -59.109375 C 42.257812 -58.234375 40.398438 -57.796875 38.796875 -57.796875 C 37.398438 -57.796875 36.144531 -58.117188 35.03125 -58.765625 C 33.914062 -59.410156 32.984375 -60.210938 32.234375 -61.171875 C 31.484375 -62.128906 30.898438 -63.140625 30.484375 -64.203125 C 30.078125 -65.265625 29.875 -66.207031 29.875 -67.03125 C 29.875 -67.707031 29.960938 -68.144531 30.140625 -68.34375 C 30.316406 -68.550781 30.570312 -68.640625 30.90625 -68.609375 C 31.25 -68.585938 31.675781 -68.515625 32.1875 -68.390625 C 32.707031 -68.265625 33.304688 -68.203125 33.984375 -68.203125 C 36.148438 -68.203125 38.550781 -68.953125 41.1875 -70.453125 C 43.832031 -71.953125 46.316406 -73.863281 48.640625 -76.1875 C 50.972656 -78.507812 52.925781 -81.066406 54.5 -83.859375 C 56.082031 -86.660156 56.875 -89.378906 56.875 -92.015625 C 56.875 -94.703125 56.210938 -96.820312 54.890625 -98.375 C 53.566406 -99.925781 51.328125 -100.703125 48.171875 -100.703125 C 46.210938 -100.703125 44.082031 -100.328125 41.78125 -99.578125 C 39.476562 -98.828125 37.160156 -97.78125 34.828125 -96.4375 C 32.503906 -95.09375 30.253906 -93.460938 28.078125 -91.546875 C 25.910156 -89.628906 24 -87.519531 22.34375 -85.21875 C 20.6875 -82.914062 19.351562 -80.429688 18.34375 -77.765625 C 17.332031 -75.109375 16.828125 -72.332031 16.828125 -69.4375 C 16.828125 -66.382812 17.382812 -63.65625 18.5 -61.25 C 19.613281 -58.84375 21.085938 -56.65625 22.921875 -54.6875 C 24.765625 -52.726562 26.847656 -50.921875 29.171875 -49.265625 C 31.492188 -47.609375 33.867188 -45.960938 36.296875 -44.328125 C 38.734375 -42.703125 41.113281 -41.023438 43.4375 -39.296875 C 45.769531 -37.566406 47.851562 -35.648438 49.6875 -33.546875 C 51.53125 -31.453125 53.003906 -29.125 54.109375 -26.5625 C 55.222656 -24.007812 55.78125 -21.078125 55.78125 -17.765625 C 55.78125 -14.554688 55.171875 -11.515625 53.953125 -8.640625 C 52.742188 -5.773438 51.078125 -3.28125 48.953125 -1.15625 C 46.835938 0.957031 44.328125 2.632812 41.421875 3.875 C 38.523438 5.113281 35.425781 5.734375 32.125 5.734375 Z M 32.125 5.734375 "/></g></g></g><g fill="#045d61" fill-opacity="1"><g transform="translate(67.604181, 151.103881)"><g><path d="M 5.59375 -97.90625 C 5.59375 -99.039062 5.5 -99.945312 5.3125 -100.625 C 5.132812 -101.300781 4.953125 -101.832031 4.765625 -102.21875 C 4.585938 -102.601562 4.40625 -102.910156 4.21875 -103.140625 C 4.039062 -103.378906 3.953125 -103.628906 3.953125 -103.890625 C 3.953125 -104.191406 4.109375 -104.445312 4.421875 -104.65625 C 4.734375 -104.863281 5.144531 -105.046875 5.65625 -105.203125 C 6.175781 -105.359375 6.734375 -105.472656 7.328125 -105.546875 C 7.921875 -105.628906 8.503906 -105.671875 9.078125 -105.671875 C 11.710938 -105.671875 13.789062 -104.984375 15.3125 -103.609375 C 16.84375 -102.242188 17.609375 -100.601562 17.609375 -98.6875 L 17.609375 -46.546875 C 18.691406 -48.773438 19.867188 -50.84375 21.140625 -52.75 C 22.410156 -54.664062 23.78125 -56.332031 25.25 -57.75 C 26.726562 -59.175781 28.304688 -60.289062 29.984375 -61.09375 C 31.660156 -61.894531 33.484375 -62.296875 35.453125 -62.296875 C 38.085938 -62.296875 40.257812 -61.800781 41.96875 -60.8125 C 43.675781 -59.832031 45.019531 -58.566406 46 -57.015625 C 46.988281 -55.472656 47.675781 -53.742188 48.0625 -51.828125 C 48.445312 -49.910156 48.640625 -48.046875 48.640625 -46.234375 L 48.640625 -13.34375 C 48.640625 -12.976562 48.664062 -12.394531 48.71875 -11.59375 C 48.769531 -10.789062 48.925781 -9.972656 49.1875 -9.140625 C 49.445312 -8.316406 49.847656 -7.59375 50.390625 -6.96875 C 50.929688 -6.351562 51.71875 -6.046875 52.75 -6.046875 C 54.351562 -6.046875 55.738281 -6.613281 56.90625 -7.75 C 58.070312 -8.894531 59.082031 -10.316406 59.9375 -12.015625 C 60.789062 -13.722656 61.488281 -15.570312 62.03125 -17.5625 C 62.570312 -19.5625 63.023438 -21.441406 63.390625 -23.203125 C 63.691406 -24.804688 64.164062 -25.96875 64.8125 -26.6875 C 65.46875 -27.414062 66.171875 -27.816406 66.921875 -27.890625 C 67.671875 -27.960938 68.429688 -27.765625 69.203125 -27.296875 C 69.984375 -26.835938 70.65625 -26.234375 71.21875 -25.484375 C 71.789062 -24.734375 72.21875 -23.890625 72.5 -22.953125 C 72.78125 -22.023438 72.820312 -21.148438 72.625 -20.328125 C 71.894531 -17.691406 70.945312 -14.925781 69.78125 -12.03125 C 68.625 -9.132812 67.140625 -6.46875 65.328125 -4.03125 C 63.515625 -1.601562 61.335938 0.410156 58.796875 2.015625 C 56.265625 3.617188 53.296875 4.421875 49.890625 4.421875 C 47.765625 4.421875 45.882812 4.019531 44.25 3.21875 C 42.625 2.414062 41.226562 1.34375 40.0625 0 C 38.90625 -1.34375 38.03125 -2.921875 37.4375 -4.734375 C 36.84375 -6.546875 36.546875 -8.457031 36.546875 -10.46875 L 36.546875 -42.75 C 36.546875 -43.988281 36.519531 -45.148438 36.46875 -46.234375 C 36.414062 -47.328125 36.269531 -48.285156 36.03125 -49.109375 C 35.800781 -49.941406 35.46875 -50.601562 35.03125 -51.09375 C 34.59375 -51.582031 33.984375 -51.828125 33.203125 -51.828125 C 32.066406 -51.828125 30.671875 -51.050781 29.015625 -49.5 C 27.359375 -47.945312 25.726562 -45.925781 24.125 -43.4375 C 22.519531 -40.957031 21.109375 -38.148438 19.890625 -35.015625 C 18.679688 -31.890625 17.921875 -28.753906 17.609375 -25.609375 L 17.609375 -2.40625 C 17.609375 -1.625 17.59375 -0.832031 17.5625 -0.03125 C 17.539062 0.757812 17.390625 1.476562 17.109375 2.125 C 16.828125 2.78125 16.382812 3.328125 15.78125 3.765625 C 15.1875 4.203125 14.320312 4.421875 13.1875 4.421875 C 12.414062 4.421875 11.578125 4.328125 10.671875 4.140625 C 9.765625 3.960938 8.9375 3.628906 8.1875 3.140625 C 7.4375 2.648438 6.816406 1.953125 6.328125 1.046875 C 5.835938 0.140625 5.59375 -1.0625 5.59375 -2.5625 Z M 5.59375 -97.90625 "/></g></g></g><g fill="#045d61" fill-opacity="1"><g transform="translate(126.097994, 151.103881)"><g><path d="M 50.5 -6.046875 C 52.101562 -6.046875 53.488281 -6.613281 54.65625 -7.75 C 55.820312 -8.894531 56.832031 -10.316406 57.6875 -12.015625 C 58.539062 -13.722656 59.238281 -15.570312 59.78125 -17.5625 C 60.320312 -19.5625 60.773438 -21.441406 61.140625 -23.203125 C 61.492188 -24.859375 62.019531 -26.0625 62.71875 -26.8125 C 63.425781 -27.5625 64.191406 -27.9375 65.015625 -27.9375 C 65.640625 -27.9375 66.273438 -27.738281 66.921875 -27.34375 C 67.566406 -26.957031 68.160156 -26.453125 68.703125 -25.828125 C 69.242188 -25.210938 69.679688 -24.515625 70.015625 -23.734375 C 70.347656 -22.960938 70.515625 -22.1875 70.515625 -21.40625 C 70.515625 -21.3125 70.515625 -21.1875 70.515625 -21.03125 C 70.515625 -20.875 70.46875 -20.640625 70.375 -20.328125 C 69.695312 -17.691406 68.773438 -14.925781 67.609375 -12.03125 C 66.453125 -9.132812 64.96875 -6.46875 63.15625 -4.03125 C 61.34375 -1.601562 59.15625 0.410156 56.59375 2.015625 C 54.03125 3.617188 51.046875 4.421875 47.640625 4.421875 C 44.847656 4.421875 42.414062 3.828125 40.34375 2.640625 C 38.269531 1.453125 36.640625 -0.125 35.453125 -2.09375 C 33.847656 -0.28125 31.921875 1.253906 29.671875 2.515625 C 27.421875 3.785156 24.796875 4.421875 21.796875 4.421875 C 18.691406 4.421875 15.960938 3.800781 13.609375 2.5625 C 11.253906 1.320312 9.273438 -0.367188 7.671875 -2.515625 C 6.078125 -4.660156 4.878906 -7.195312 4.078125 -10.125 C 3.273438 -13.050781 2.875 -16.191406 2.875 -19.546875 C 2.875 -26.171875 3.929688 -32.117188 6.046875 -37.390625 C 8.171875 -42.671875 10.988281 -47.160156 14.5 -50.859375 C 18.019531 -54.554688 22.039062 -57.382812 26.5625 -59.34375 C 31.09375 -61.3125 35.789062 -62.296875 40.65625 -62.296875 C 42.820312 -62.296875 44.578125 -61.703125 45.921875 -60.515625 C 47.273438 -59.328125 47.953125 -57.695312 47.953125 -55.625 C 47.953125 -54.28125 47.804688 -53.335938 47.515625 -52.796875 C 47.234375 -52.253906 46.703125 -51.984375 45.921875 -51.984375 C 45.203125 -51.984375 44.453125 -52.035156 43.671875 -52.140625 C 42.898438 -52.242188 42.101562 -52.296875 41.28125 -52.296875 C 38.28125 -52.296875 35.226562 -51.632812 32.125 -50.3125 C 29.019531 -48.988281 26.210938 -46.96875 23.703125 -44.25 C 21.191406 -41.539062 19.132812 -38.101562 17.53125 -33.9375 C 15.925781 -29.78125 15.125 -24.828125 15.125 -19.078125 C 15.125 -14.890625 15.925781 -11.671875 17.53125 -9.421875 C 19.132812 -7.171875 21.332031 -6.046875 24.125 -6.046875 C 26.300781 -6.046875 28.113281 -6.859375 29.5625 -8.484375 C 31.007812 -10.117188 32.171875 -12.050781 33.046875 -14.28125 L 33.046875 -38.796875 C 33.046875 -39.566406 33.003906 -40.207031 32.921875 -40.71875 C 32.847656 -41.238281 32.769531 -41.679688 32.6875 -42.046875 C 32.613281 -42.410156 32.550781 -42.734375 32.5 -43.015625 C 32.457031 -43.304688 32.4375 -43.578125 32.4375 -43.828125 C 32.4375 -44.660156 32.832031 -45.320312 33.625 -45.8125 C 34.425781 -46.300781 35.398438 -46.546875 36.546875 -46.546875 C 39.179688 -46.546875 41.273438 -45.859375 42.828125 -44.484375 C 44.378906 -43.117188 45.15625 -41.476562 45.15625 -39.5625 L 45.15625 -13.34375 C 45.15625 -12.46875 45.257812 -11.601562 45.46875 -10.75 C 45.675781 -9.894531 45.984375 -9.117188 46.390625 -8.421875 C 46.804688 -7.722656 47.363281 -7.148438 48.0625 -6.703125 C 48.757812 -6.265625 49.570312 -6.046875 50.5 -6.046875 Z M 50.5 -6.046875 "/></g></g></g><g fill="#045d61" fill-opacity="1"><g transform="translate(182.342056, 151.103881)"><g><path d="M 100.390625 -20.328125 C 99.671875 -17.691406 98.726562 -14.925781 97.5625 -12.03125 C 96.394531 -9.132812 94.90625 -6.46875 93.09375 -4.03125 C 91.289062 -1.601562 89.117188 0.410156 86.578125 2.015625 C 84.046875 3.617188 81.070312 4.421875 77.65625 4.421875 C 75.539062 4.421875 73.664062 4.019531 72.03125 3.21875 C 70.40625 2.414062 69.007812 1.34375 67.84375 0 C 66.675781 -1.34375 65.796875 -2.921875 65.203125 -4.734375 C 64.609375 -6.546875 64.3125 -8.457031 64.3125 -10.46875 L 64.3125 -42.75 C 64.3125 -43.988281 64.285156 -45.148438 64.234375 -46.234375 C 64.179688 -47.328125 64.050781 -48.285156 63.84375 -49.109375 C 63.644531 -49.941406 63.347656 -50.601562 62.953125 -51.09375 C 62.566406 -51.582031 62.039062 -51.828125 61.375 -51.828125 C 60.28125 -51.828125 58.957031 -51.050781 57.40625 -49.5 C 55.851562 -47.945312 54.351562 -45.925781 52.90625 -43.4375 C 51.457031 -40.957031 50.164062 -38.148438 49.03125 -35.015625 C 47.894531 -31.890625 47.222656 -28.753906 47.015625 -25.609375 L 47.015625 -2.40625 C 47.015625 -1.625 47 -0.832031 46.96875 -0.03125 C 46.945312 0.757812 46.789062 1.476562 46.5 2.125 C 46.21875 2.78125 45.78125 3.328125 45.1875 3.765625 C 44.59375 4.203125 43.726562 4.421875 42.59375 4.421875 C 41.8125 4.421875 40.96875 4.328125 40.0625 4.140625 C 39.164062 3.960938 38.34375 3.628906 37.59375 3.140625 C 36.84375 2.648438 36.21875 1.953125 35.71875 1.046875 C 35.226562 0.140625 34.984375 -1.0625 34.984375 -2.5625 L 34.984375 -42.75 C 34.984375 -43.988281 34.941406 -45.148438 34.859375 -46.234375 C 34.785156 -47.328125 34.644531 -48.285156 34.4375 -49.109375 C 34.238281 -49.941406 33.941406 -50.601562 33.546875 -51.09375 C 33.160156 -51.582031 32.632812 -51.828125 31.96875 -51.828125 C 30.875 -51.828125 29.5625 -51.050781 28.03125 -49.5 C 26.507812 -47.945312 25.007812 -45.925781 23.53125 -43.4375 C 22.0625 -40.957031 20.769531 -38.148438 19.65625 -35.015625 C 18.550781 -31.890625 17.867188 -28.753906 17.609375 -25.609375 L 17.609375 -2.40625 C 17.609375 -1.625 17.59375 -0.832031 17.5625 -0.03125 C 17.539062 0.757812 17.390625 1.476562 17.109375 2.125 C 16.828125 2.78125 16.382812 3.328125 15.78125 3.765625 C 15.1875 4.203125 14.320312 4.421875 13.1875 4.421875 C 12.414062 4.421875 11.578125 4.328125 10.671875 4.140625 C 9.765625 3.960938 8.9375 3.628906 8.1875 3.140625 C 7.4375 2.648438 6.816406 1.953125 6.328125 1.046875 C 5.835938 0.140625 5.59375 -1.0625 5.59375 -2.5625 L 5.59375 -52.90625 C 5.59375 -54.40625 5.472656 -55.488281 5.234375 -56.15625 C 5.003906 -56.832031 4.890625 -57.457031 4.890625 -58.03125 C 4.890625 -58.8125 5.300781 -59.445312 6.125 -59.9375 C 6.957031 -60.425781 7.941406 -60.671875 9.078125 -60.671875 C 11.710938 -60.671875 13.789062 -59.984375 15.3125 -58.609375 C 16.84375 -57.242188 17.609375 -55.601562 17.609375 -53.6875 L 17.609375 -47.015625 C 18.640625 -49.191406 19.765625 -51.207031 20.984375 -53.0625 C 22.203125 -54.925781 23.507812 -56.539062 24.90625 -57.90625 C 26.300781 -59.28125 27.785156 -60.351562 29.359375 -61.125 C 30.941406 -61.90625 32.640625 -62.296875 34.453125 -62.296875 C 36.828125 -62.296875 38.800781 -61.851562 40.375 -60.96875 C 41.957031 -60.09375 43.226562 -58.929688 44.1875 -57.484375 C 45.144531 -56.035156 45.828125 -54.421875 46.234375 -52.640625 C 46.648438 -50.859375 46.910156 -49.085938 47.015625 -47.328125 C 47.992188 -49.441406 49.078125 -51.40625 50.265625 -53.21875 C 51.460938 -55.03125 52.757812 -56.609375 54.15625 -57.953125 C 55.550781 -59.296875 57.035156 -60.351562 58.609375 -61.125 C 60.191406 -61.90625 61.890625 -62.296875 63.703125 -62.296875 C 66.285156 -62.296875 68.40625 -61.800781 70.0625 -60.8125 C 71.71875 -59.832031 73.007812 -58.566406 73.9375 -57.015625 C 74.863281 -55.472656 75.507812 -53.742188 75.875 -51.828125 C 76.238281 -49.910156 76.421875 -48.046875 76.421875 -46.234375 L 76.421875 -13.34375 C 76.421875 -12.976562 76.445312 -12.394531 76.5 -11.59375 C 76.550781 -10.789062 76.703125 -9.972656 76.953125 -9.140625 C 77.210938 -8.316406 77.613281 -7.59375 78.15625 -6.96875 C 78.707031 -6.351562 79.5 -6.046875 80.53125 -6.046875 C 82.132812 -6.046875 83.515625 -6.613281 84.671875 -7.75 C 85.835938 -8.894531 86.847656 -10.316406 87.703125 -12.015625 C 88.554688 -13.722656 89.265625 -15.570312 89.828125 -17.5625 C 90.398438 -19.5625 90.867188 -21.441406 91.234375 -23.203125 C 91.546875 -24.859375 92.050781 -26.0625 92.75 -26.8125 C 93.445312 -27.5625 94.210938 -27.9375 95.046875 -27.9375 C 95.660156 -27.9375 96.289062 -27.738281 96.9375 -27.34375 C 97.582031 -26.957031 98.175781 -26.453125 98.71875 -25.828125 C 99.269531 -25.210938 99.710938 -24.515625 100.046875 -23.734375 C 100.378906 -22.960938 100.546875 -22.1875 100.546875 -21.40625 C 100.546875 -21.3125 100.546875 -21.1875 100.546875 -21.03125 C 100.546875 -20.875 100.492188 -20.640625 100.390625 -20.328125 Z M 100.390625 -20.328125 "/></g></g></g><g fill="#045d61" fill-opacity="1"><g transform="translate(268.608795, 151.103881)"><g><path d="M 22.890625 -40.5 C 22.890625 -43.707031 23.238281 -46.488281 23.9375 -48.84375 C 24.632812 -51.195312 25.601562 -53.132812 26.84375 -54.65625 C 28.082031 -56.1875 29.515625 -57.3125 31.140625 -58.03125 C 32.773438 -58.757812 34.523438 -59.125 36.390625 -59.125 C 38.503906 -59.125 40.570312 -58.601562 42.59375 -57.5625 C 44.613281 -56.53125 46.410156 -54.953125 47.984375 -52.828125 C 49.566406 -50.710938 50.832031 -48.023438 51.78125 -44.765625 C 52.738281 -41.503906 53.21875 -37.648438 53.21875 -33.203125 C 53.21875 -30.097656 53.023438 -27.003906 52.640625 -23.921875 C 52.253906 -20.847656 51.644531 -17.914062 50.8125 -15.125 C 51.382812 -14.914062 51.941406 -14.796875 52.484375 -14.765625 C 53.023438 -14.742188 53.582031 -14.734375 54.15625 -14.734375 C 55.863281 -14.734375 57.375 -15.046875 58.6875 -15.671875 C 60.007812 -16.296875 61.148438 -17.125 62.109375 -18.15625 C 63.066406 -19.1875 63.828125 -20.398438 64.390625 -21.796875 C 64.960938 -23.191406 65.378906 -24.664062 65.640625 -26.21875 C 65.742188 -26.84375 66.09375 -27.359375 66.6875 -27.765625 C 67.28125 -28.179688 67.960938 -28.46875 68.734375 -28.625 C 69.515625 -28.78125 70.332031 -28.78125 71.1875 -28.625 C 72.039062 -28.46875 72.773438 -28.117188 73.390625 -27.578125 C 74.015625 -27.035156 74.46875 -26.285156 74.75 -25.328125 C 75.03125 -24.367188 75.019531 -23.140625 74.71875 -21.640625 C 74.25 -19.472656 73.484375 -17.441406 72.421875 -15.546875 C 71.359375 -13.660156 70.023438 -11.992188 68.421875 -10.546875 C 66.816406 -9.097656 64.925781 -7.957031 62.75 -7.125 C 60.582031 -6.300781 58.15625 -5.890625 55.46875 -5.890625 C 54.019531 -5.890625 52.625 -5.96875 51.28125 -6.125 C 49.9375 -6.28125 48.617188 -6.566406 47.328125 -6.984375 C 45.359375 -3.566406 42.796875 -0.8125 39.640625 1.28125 C 36.484375 3.375 32.582031 4.421875 27.9375 4.421875 C 24.257812 4.421875 21.035156 3.773438 18.265625 2.484375 C 15.503906 1.191406 13.175781 -0.628906 11.28125 -2.984375 C 9.394531 -5.335938 7.972656 -8.144531 7.015625 -11.40625 C 6.066406 -14.664062 5.59375 -18.234375 5.59375 -22.109375 L 5.59375 -97.90625 C 5.59375 -99.039062 5.5 -99.945312 5.3125 -100.625 C 5.132812 -101.300781 4.953125 -101.832031 4.765625 -102.21875 C 4.585938 -102.601562 4.40625 -102.910156 4.21875 -103.140625 C 4.039062 -103.378906 3.953125 -103.628906 3.953125 -103.890625 C 3.953125 -104.191406 4.109375 -104.445312 4.421875 -104.65625 C 4.734375 -104.863281 5.144531 -105.046875 5.65625 -105.203125 C 6.175781 -105.359375 6.734375 -105.472656 7.328125 -105.546875 C 7.921875 -105.628906 8.503906 -105.671875 9.078125 -105.671875 C 11.710938 -105.671875 13.789062 -104.984375 15.3125 -103.609375 C 16.84375 -102.242188 17.609375 -100.601562 17.609375 -98.6875 L 17.609375 -24.28125 C 17.609375 -21.644531 17.84375 -19.210938 18.3125 -16.984375 C 18.78125 -14.765625 19.476562 -12.835938 20.40625 -11.203125 C 21.332031 -9.578125 22.503906 -8.3125 23.921875 -7.40625 C 25.347656 -6.5 27.019531 -6.046875 28.9375 -6.046875 C 30.90625 -6.046875 32.585938 -6.550781 33.984375 -7.5625 C 35.378906 -8.570312 36.539062 -9.929688 37.46875 -11.640625 C 35.195312 -13.242188 33.164062 -15.117188 31.375 -17.265625 C 29.59375 -19.410156 28.066406 -21.734375 26.796875 -24.234375 C 25.535156 -26.742188 24.566406 -29.382812 23.890625 -32.15625 C 23.222656 -34.925781 22.890625 -37.707031 22.890625 -40.5 Z M 32.734375 -41.125 C 32.734375 -37.289062 33.421875 -33.664062 34.796875 -30.25 C 36.171875 -26.84375 38.019531 -23.894531 40.34375 -21.40625 C 40.65625 -23.269531 40.863281 -25.117188 40.96875 -26.953125 C 41.070312 -28.796875 41.125 -30.46875 41.125 -31.96875 C 41.125 -37.289062 40.566406 -41.398438 39.453125 -44.296875 C 38.335938 -47.191406 37.054688 -48.640625 35.609375 -48.640625 C 34.578125 -48.640625 33.835938 -47.953125 33.390625 -46.578125 C 32.953125 -45.210938 32.734375 -43.394531 32.734375 -41.125 Z M 32.734375 -41.125 "/></g></g></g><g fill="#045d61" fill-opacity="1"><g transform="translate(328.654169, 151.103881)"><g><path d="M 50.5 -6.046875 C 52.101562 -6.046875 53.488281 -6.613281 54.65625 -7.75 C 55.820312 -8.894531 56.832031 -10.316406 57.6875 -12.015625 C 58.539062 -13.722656 59.238281 -15.570312 59.78125 -17.5625 C 60.320312 -19.5625 60.773438 -21.441406 61.140625 -23.203125 C 61.492188 -24.859375 62.019531 -26.0625 62.71875 -26.8125 C 63.425781 -27.5625 64.191406 -27.9375 65.015625 -27.9375 C 65.640625 -27.9375 66.273438 -27.738281 66.921875 -27.34375 C 67.566406 -26.957031 68.160156 -26.453125 68.703125 -25.828125 C 69.242188 -25.210938 69.679688 -24.515625 70.015625 -23.734375 C 70.347656 -22.960938 70.515625 -22.1875 70.515625 -21.40625 C 70.515625 -21.3125 70.515625 -21.1875 70.515625 -21.03125 C 70.515625 -20.875 70.46875 -20.640625 70.375 -20.328125 C 69.695312 -17.691406 68.773438 -14.925781 67.609375 -12.03125 C 66.453125 -9.132812 64.96875 -6.46875 63.15625 -4.03125 C 61.34375 -1.601562 59.15625 0.410156 56.59375 2.015625 C 54.03125 3.617188 51.046875 4.421875 47.640625 4.421875 C 44.847656 4.421875 42.414062 3.828125 40.34375 2.640625 C 38.269531 1.453125 36.640625 -0.125 35.453125 -2.09375 C 33.847656 -0.28125 31.921875 1.253906 29.671875 2.515625 C 27.421875 3.785156 24.796875 4.421875 21.796875 4.421875 C 18.691406 4.421875 15.960938 3.800781 13.609375 2.5625 C 11.253906 1.320312 9.273438 -0.367188 7.671875 -2.515625 C 6.078125 -4.660156 4.878906 -7.195312 4.078125 -10.125 C 3.273438 -13.050781 2.875 -16.191406 2.875 -19.546875 C 2.875 -26.171875 3.929688 -32.117188 6.046875 -37.390625 C 8.171875 -42.671875 10.988281 -47.160156 14.5 -50.859375 C 18.019531 -54.554688 22.039062 -57.382812 26.5625 -59.34375 C 31.09375 -61.3125 35.789062 -62.296875 40.65625 -62.296875 C 42.820312 -62.296875 44.578125 -61.703125 45.921875 -60.515625 C 47.273438 -59.328125 47.953125 -57.695312 47.953125 -55.625 C 47.953125 -54.28125 47.804688 -53.335938 47.515625 -52.796875 C 47.234375 -52.253906 46.703125 -51.984375 45.921875 -51.984375 C 45.203125 -51.984375 44.453125 -52.035156 43.671875 -52.140625 C 42.898438 -52.242188 42.101562 -52.296875 41.28125 -52.296875 C 38.28125 -52.296875 35.226562 -51.632812 32.125 -50.3125 C 29.019531 -48.988281 26.210938 -46.96875 23.703125 -44.25 C 21.191406 -41.539062 19.132812 -38.101562 17.53125 -33.9375 C 15.925781 -29.78125 15.125 -24.828125 15.125 -19.078125 C 15.125 -14.890625 15.925781 -11.671875 17.53125 -9.421875 C 19.132812 -7.171875 21.332031 -6.046875 24.125 -6.046875 C 26.300781 -6.046875 28.113281 -6.859375 29.5625 -8.484375 C 31.007812 -10.117188 32.171875 -12.050781 33.046875 -14.28125 L 33.046875 -38.796875 C 33.046875 -39.566406 33.003906 -40.207031 32.921875 -40.71875 C 32.847656 -41.238281 32.769531 -41.679688 32.6875 -42.046875 C 32.613281 -42.410156 32.550781 -42.734375 32.5 -43.015625 C 32.457031 -43.304688 32.4375 -43.578125 32.4375 -43.828125 C 32.4375 -44.660156 32.832031 -45.320312 33.625 -45.8125 C 34.425781 -46.300781 35.398438 -46.546875 36.546875 -46.546875 C 39.179688 -46.546875 41.273438 -45.859375 42.828125 -44.484375 C 44.378906 -43.117188 45.15625 -41.476562 45.15625 -39.5625 L 45.15625 -13.34375 C 45.15625 -12.46875 45.257812 -11.601562 45.46875 -10.75 C 45.675781 -9.894531 45.984375 -9.117188 46.390625 -8.421875 C 46.804688 -7.722656 47.363281 -7.148438 48.0625 -6.703125 C 48.757812 -6.265625 49.570312 -6.046875 50.5 -6.046875 Z M 50.5 -6.046875 "/></g></g></g><g fill="#045d61" fill-opacity="1"><g transform="translate(384.898211, 151.103881)"><g><path d="M 5.59375 -52.90625 C 5.59375 -54.40625 5.472656 -55.488281 5.234375 -56.15625 C 5.003906 -56.832031 4.890625 -57.457031 4.890625 -58.03125 C 4.890625 -58.8125 5.300781 -59.445312 6.125 -59.9375 C 6.957031 -60.425781 7.941406 -60.671875 9.078125 -60.671875 C 11.710938 -60.671875 13.789062 -59.984375 15.3125 -58.609375 C 16.84375 -57.242188 17.609375 -55.601562 17.609375 -53.6875 L 17.609375 -46.546875 C 18.691406 -48.773438 19.867188 -50.84375 21.140625 -52.75 C 22.410156 -54.664062 23.78125 -56.332031 25.25 -57.75 C 26.726562 -59.175781 28.304688 -60.289062 29.984375 -61.09375 C 31.660156 -61.894531 33.484375 -62.296875 35.453125 -62.296875 C 38.085938 -62.296875 40.257812 -61.800781 41.96875 -60.8125 C 43.675781 -59.832031 45.019531 -58.566406 46 -57.015625 C 46.988281 -55.472656 47.675781 -53.742188 48.0625 -51.828125 C 48.445312 -49.910156 48.640625 -48.046875 48.640625 -46.234375 L 48.640625 -13.34375 C 48.640625 -12.976562 48.664062 -12.394531 48.71875 -11.59375 C 48.769531 -10.789062 48.925781 -9.972656 49.1875 -9.140625 C 49.445312 -8.316406 49.847656 -7.59375 50.390625 -6.96875 C 50.929688 -6.351562 51.71875 -6.046875 52.75 -6.046875 C 54.351562 -6.046875 55.738281 -6.613281 56.90625 -7.75 C 58.070312 -8.894531 59.082031 -10.316406 59.9375 -12.015625 C 60.789062 -13.722656 61.488281 -15.570312 62.03125 -17.5625 C 62.570312 -19.5625 63.023438 -21.441406 63.390625 -23.203125 C 63.691406 -24.859375 64.203125 -26.0625 64.921875 -26.8125 C 65.648438 -27.5625 66.40625 -27.9375 67.1875 -27.9375 C 67.8125 -27.9375 68.457031 -27.738281 69.125 -27.34375 C 69.800781 -26.957031 70.410156 -26.453125 70.953125 -25.828125 C 71.492188 -25.210938 71.929688 -24.515625 72.265625 -23.734375 C 72.597656 -22.960938 72.765625 -22.1875 72.765625 -21.40625 C 72.765625 -21.3125 72.765625 -21.1875 72.765625 -21.03125 C 72.765625 -20.875 72.71875 -20.640625 72.625 -20.328125 C 71.945312 -17.691406 71.023438 -14.925781 69.859375 -12.03125 C 68.703125 -9.132812 67.203125 -6.46875 65.359375 -4.03125 C 63.523438 -1.601562 61.335938 0.410156 58.796875 2.015625 C 56.265625 3.617188 53.296875 4.421875 49.890625 4.421875 C 47.765625 4.421875 45.882812 4.019531 44.25 3.21875 C 42.625 2.414062 41.226562 1.34375 40.0625 0 C 38.90625 -1.34375 38.03125 -2.921875 37.4375 -4.734375 C 36.84375 -6.546875 36.546875 -8.457031 36.546875 -10.46875 L 36.546875 -42.75 C 36.546875 -43.988281 36.519531 -45.148438 36.46875 -46.234375 C 36.414062 -47.328125 36.269531 -48.285156 36.03125 -49.109375 C 35.800781 -49.941406 35.46875 -50.601562 35.03125 -51.09375 C 34.59375 -51.582031 33.984375 -51.828125 33.203125 -51.828125 C 32.066406 -51.828125 30.671875 -51.050781 29.015625 -49.5 C 27.359375 -47.945312 25.726562 -45.925781 24.125 -43.4375 C 22.519531 -40.957031 21.109375 -38.148438 19.890625 -35.015625 C 18.679688 -31.890625 17.921875 -28.753906 17.609375 -25.609375 L 17.609375 -2.40625 C 17.609375 -1.625 17.59375 -0.832031 17.5625 -0.03125 C 17.539062 0.757812 17.390625 1.476562 17.109375 2.125 C 16.828125 2.78125 16.382812 3.328125 15.78125 3.765625 C 15.1875 4.203125 14.320312 4.421875 13.1875 4.421875 C 12.414062 4.421875 11.578125 4.328125 10.671875 4.140625 C 9.765625 3.960938 8.9375 3.628906 8.1875 3.140625 C 7.4375 2.648438 6.816406 1.953125 6.328125 1.046875 C 5.835938 0.140625 5.59375 -1.0625 5.59375 -2.5625 Z M 5.59375 -52.90625 "/></g></g></g><g fill="#00acc1" fill-opacity="1"><g transform="translate(442.235541, 151.103881)"><g><path d="M 22.578125 -11.640625 C 24.742188 -11.640625 26.578125 -10.898438 28.078125 -9.421875 C 29.578125 -7.953125 30.328125 -6.128906 30.328125 -3.953125 C 30.328125 -2.972656 30.117188 -2.03125 29.703125 -1.125 C 29.296875 -0.21875 28.742188 0.566406 28.046875 1.234375 C 27.347656 1.910156 26.53125 2.453125 25.59375 2.859375 C 24.664062 3.273438 23.660156 3.484375 22.578125 3.484375 C 21.546875 3.484375 20.578125 3.273438 19.671875 2.859375 C 18.765625 2.453125 17.960938 1.910156 17.265625 1.234375 C 16.566406 0.566406 16.007812 -0.21875 15.59375 -1.125 C 15.175781 -2.03125 14.96875 -2.972656 14.96875 -3.953125 C 14.96875 -5.046875 15.175781 -6.054688 15.59375 -6.984375 C 16.007812 -7.910156 16.566406 -8.722656 17.265625 -9.421875 C 17.960938 -10.117188 18.765625 -10.660156 19.671875 -11.046875 C 20.578125 -11.441406 21.546875 -11.640625 22.578125 -11.640625 Z M 22.578125 -11.640625 "/></g></g></g><g fill="#045d61" fill-opacity="1"><g transform="translate(485.141295, 151.103881)"><g><path d="M 61.984375 -23.203125 C 62.453125 -24.859375 62.992188 -26.0625 63.609375 -26.8125 C 64.234375 -27.5625 64.960938 -27.9375 65.796875 -27.9375 C 66.410156 -27.9375 67.050781 -27.738281 67.71875 -27.34375 C 68.394531 -26.957031 69.003906 -26.453125 69.546875 -25.828125 C 70.097656 -25.210938 70.539062 -24.515625 70.875 -23.734375 C 71.207031 -22.960938 71.375 -22.1875 71.375 -21.40625 C 71.375 -21.3125 71.375 -21.109375 71.375 -20.796875 C 71.375 -20.484375 71.320312 -20.171875 71.21875 -19.859375 C 69.875 -15.253906 68.304688 -11.179688 66.515625 -7.640625 C 64.734375 -4.097656 62.820312 -0.929688 60.78125 1.859375 C 58.738281 4.648438 56.628906 7.144531 54.453125 9.34375 C 52.285156 11.539062 50.117188 13.570312 47.953125 15.4375 L 47.953125 42.90625 C 47.953125 47.09375 47.472656 50.617188 46.515625 53.484375 C 45.554688 56.359375 44.300781 58.6875 42.75 60.46875 C 41.195312 62.257812 39.4375 63.539062 37.46875 64.3125 C 35.507812 65.09375 33.519531 65.484375 31.5 65.484375 C 29.269531 65.484375 27.222656 65.003906 25.359375 64.046875 C 23.503906 63.085938 21.890625 61.78125 20.515625 60.125 C 19.148438 58.46875 18.09375 56.523438 17.34375 54.296875 C 16.59375 52.078125 16.21875 49.703125 16.21875 47.171875 C 16.21875 43.140625 16.742188 39.570312 17.796875 36.46875 C 18.859375 33.363281 20.296875 30.515625 22.109375 27.921875 C 23.921875 25.335938 26.015625 22.921875 28.390625 20.671875 C 30.773438 18.421875 33.285156 16.132812 35.921875 13.8125 L 35.921875 -6.359375 C 34.003906 -3.148438 31.78125 -0.523438 29.25 1.515625 C 26.71875 3.554688 23.742188 4.578125 20.328125 4.578125 C 17.691406 4.578125 15.320312 4.03125 13.21875 2.9375 C 11.125 1.851562 9.351562 0.316406 7.90625 -1.671875 C 6.457031 -3.660156 5.359375 -6.0625 4.609375 -8.875 C 3.859375 -11.695312 3.484375 -14.84375 3.484375 -18.3125 C 3.484375 -22.5 3.78125 -26.710938 4.375 -30.953125 C 4.976562 -35.191406 5.640625 -39.019531 6.359375 -42.4375 C 7.191406 -46.414062 8.148438 -50.269531 9.234375 -54 C 9.492188 -54.664062 9.6875 -55.347656 9.8125 -56.046875 C 9.945312 -56.742188 10.242188 -57.378906 10.703125 -57.953125 C 11.171875 -58.523438 11.910156 -58.988281 12.921875 -59.34375 C 13.929688 -59.707031 15.492188 -59.890625 17.609375 -59.890625 C 19.578125 -59.890625 20.84375 -59.539062 21.40625 -58.84375 C 21.976562 -58.144531 22.195312 -57.328125 22.0625 -56.390625 C 21.9375 -55.460938 21.628906 -54.507812 21.140625 -53.53125 C 20.648438 -52.550781 20.328125 -51.75 20.171875 -51.125 C 19.441406 -48.175781 18.789062 -45.484375 18.21875 -43.046875 C 17.65625 -40.617188 17.179688 -38.175781 16.796875 -35.71875 C 16.410156 -33.269531 16.113281 -30.710938 15.90625 -28.046875 C 15.695312 -25.378906 15.59375 -22.390625 15.59375 -19.078125 C 15.59375 -14.734375 16.222656 -11.445312 17.484375 -9.21875 C 18.753906 -7 20.554688 -5.890625 22.890625 -5.890625 C 24.492188 -5.890625 25.976562 -6.484375 27.34375 -7.671875 C 28.71875 -8.867188 29.957031 -10.460938 31.0625 -12.453125 C 32.175781 -14.441406 33.144531 -16.71875 33.96875 -19.28125 C 34.800781 -21.84375 35.453125 -24.519531 35.921875 -27.3125 L 35.921875 -52.90625 C 35.921875 -54.40625 35.816406 -55.488281 35.609375 -56.15625 C 35.398438 -56.832031 35.296875 -57.457031 35.296875 -58.03125 C 35.296875 -58.8125 35.695312 -59.445312 36.5 -59.9375 C 37.300781 -60.425781 38.269531 -60.671875 39.40625 -60.671875 C 42.050781 -60.671875 44.132812 -59.984375 45.65625 -58.609375 C 47.1875 -57.242188 47.953125 -55.601562 47.953125 -53.6875 L 47.953125 2.09375 C 50.847656 -1.113281 53.507812 -4.757812 55.9375 -8.84375 C 58.363281 -12.925781 60.378906 -17.710938 61.984375 -23.203125 Z M 31.5 55.46875 C 32.738281 55.46875 33.664062 54.953125 34.28125 53.921875 C 34.90625 52.890625 35.332031 51.6875 35.5625 50.3125 C 35.800781 48.9375 35.921875 47.550781 35.921875 46.15625 C 35.921875 44.757812 35.921875 43.675781 35.921875 42.90625 L 35.921875 25.90625 C 33.335938 28.5 31.253906 31.421875 29.671875 34.671875 C 28.097656 37.929688 27.3125 41.941406 27.3125 46.703125 C 27.3125 49.179688 27.6875 51.257812 28.4375 52.9375 C 29.1875 54.625 30.207031 55.46875 31.5 55.46875 Z M 31.5 55.46875 "/></g></g></g></g></g></svg>